<svg xmlns="http://www.w3.org/2000/svg" version="1.1" xmlns:xlink="http://www.w3.org/1999/xlink" xmlns:svgjs="http://svgjs.dev/svgjs" width="1440" height="560" preserveAspectRatio="none" viewBox="0 0 1440 560"><g mask="url(&quot;#SvgjsMask1001&quot;)" fill="none"><rect width="1440" height="560" x="0" y="0" fill="rgba(235, 235, 235, 1)"></rect><path d="M0,561.845C106.969,565.387,218.929,536.59,299.765,466.443C376.793,399.6,404.871,293.866,424.208,193.729C440.493,109.397,401.972,28.233,400.973,-57.651C399.767,-161.34,483.634,-281.906,417.743,-361.976C352.362,-441.426,215.955,-370.358,117.923,-401.609C16.244,-434.023,-56.92,-572.372,-160.402,-546.28C-262.763,-520.471,-263.72,-368.195,-332.435,-288.056C-400.614,-208.542,-532.206,-181.529,-559.798,-80.487C-587.442,20.745,-517.836,121.259,-469.669,214.491C-423.52,303.817,-368.111,387.222,-287.274,447.007C-202.646,509.596,-105.2,558.362,0,561.845" fill="#d1d1d1"></path><path d="M1440 1065.182C1533.015 1067.857 1588.07 961.937 1661.958 905.374 1728.7640000000001 854.232 1812.571 822.363 1853.335 748.764 1895.505 672.626 1890.254 582.47 1889.0059999999999 495.443 1887.59 396.736 1898.24 292.059 1845.586 208.55700000000002 1789.848 120.16399999999999 1698.789 46.53099999999995 1595.587 30.118000000000052 1495.212 14.154999999999973 1398.302 70.18200000000002 1311.884 123.678 1240.756 167.70999999999998 1208.245 248.91699999999997 1148.145 307.106 1080.083 373.003 958.721 395.558 936.065 487.545 913.654 578.539 986.442 666.017 1040.978 742.227 1088.229 808.256 1162.984 841.76 1226.096 892.841 1298.741 951.637 1346.5819999999999 1062.496 1440 1065.182" fill="#ffffff"></path></g><defs><mask id="SvgjsMask1001"><rect width="1440" height="560" fill="#ffffff"></rect></mask></defs></svg>